<?xml version="1.0" standalone="no"?><!DOCTYPE svg PUBLIC "-//W3C//DTD SVG 1.1//EN" "http://www.w3.org/Graphics/SVG/1.1/DTD/svg11.dtd"><svg t="1645608388277" class="icon" viewBox="0 0 1024 1024" version="1.1" xmlns="http://www.w3.org/2000/svg" p-id="3579" width="200" height="200" xmlns:xlink="http://www.w3.org/1999/xlink"><defs><style type="text/css"></style></defs><path d="M463.127273 723.781818h65.163636v158.254546h-65.163636zM197.818182 525.963636h-16.290909C95.418182 516.654545 23.272727 444.509091 23.272727 365.381818v-83.781818c0-41.890909 34.909091-76.8 79.127273-76.8H209.454545c18.618182 0 34.909091 16.290909 34.909091 34.909091s-16.290909 34.909091-34.909091 34.909091H100.072727c-4.654545 0-9.309091 2.327273-9.309091 6.981818v83.781818c0 48.872727 51.2 90.763636 104.727273 90.763637v69.818181zM812.218182 525.963636h-16.290909l6.981818-69.818181c55.854545 0 104.727273-44.218182 104.727273-90.763637v-83.781818c0-4.654545-4.654545-6.981818-9.309091-6.981818H791.272727c-18.618182 0-34.909091-16.290909-34.909091-34.909091s16.290909-34.909091 34.909091-34.909091h109.381818c44.218182 0 79.127273 34.909091 79.127273 76.8v83.781818c0 81.454545-72.145455 151.272727-155.927273 160.581818h-11.636363z" fill="#40C9C6" p-id="3580"></path><path d="M495.709091 763.345455c-172.218182 0-311.854545-139.636364-311.854546-311.854546V95.418182C183.854545 53.527273 216.436364 20.945455 258.327273 20.945455h477.090909c41.890909 0 74.472727 32.581818 74.472727 74.472727v356.072727c0 172.218182-141.963636 311.854545-314.181818 311.854546zM258.327273 90.763636c-2.327273 0-4.654545 2.327273-4.654546 4.654546v356.072727c0 134.981818 109.381818 242.036364 242.036364 242.036364 134.981818 0 242.036364-109.381818 242.036364-242.036364V95.418182c0-2.327273-2.327273-4.654545-4.654546-4.654546H258.327273zM635.345455 940.218182h-279.272728c-23.272727 0-39.563636-23.272727-30.254545-44.218182 6.981818-11.636364 13.963636-18.618182 23.272727-18.618182h293.236364c6.981818 0 16.290909 4.654545 20.945454 16.290909 13.963636 18.618182-2.327273 46.545455-27.927272 46.545455z" fill="#40C9C6" p-id="3581"></path><path d="M600.436364 358.4c6.981818 0 9.309091 9.309091 6.981818 13.963636l-30.254546 30.254546c-11.636364 11.636364-16.290909 27.927273-13.963636 44.218182l6.981818 39.563636c0 4.654545-6.981818 11.636364-11.636363 9.309091l-34.909091-16.290909c-13.963636-6.981818-32.581818-6.981818-46.545455 0l-34.909091 16.290909c-6.981818 2.327273-13.963636-2.327273-11.636363-9.309091l6.981818-39.563636c2.327273-16.290909-2.327273-32.581818-13.963637-44.218182L395.636364 374.690909c-6.981818-4.654545-2.327273-13.963636 6.981818-13.963636l37.236363-4.654546c16.290909-2.327273 32.581818-11.636364 39.563637-27.927272l16.290909-34.909091c4.654545-11.636364 9.309091-9.309091 11.636364-2.327273l16.290909 34.909091c6.981818 13.963636 23.272727 25.6 39.563636 27.927273l37.236364 4.654545z" fill="#40C9C6" p-id="3582"></path></svg>